<svg width="32" height="32" viewBox="20 10 25 20" fill="none" xmlns="http://www.w3.org/2000/svg">
<path fill-rule="evenodd" clip-rule="evenodd" d="M36.75 28.2555C36.7469 28.6697 36.4087 29.003 35.9945 29L27.7225 28.9394C25.6622 28.9243 24 27.2499 24 25.1895V14.75C24 12.6789 25.6789 11 27.75 11H36C36.4142 11 36.75 11.3358 36.75 11.75C36.75 12.1642 36.4142 12.5 36 12.5H27.75C26.5074 12.5 25.5 13.5074 25.5 14.75V25.1895C25.5 26.4257 26.4973 27.4304 27.7335 27.4395L36.0055 27.5C36.4197 27.5031 36.753 27.8413 36.75 28.2555ZM36.2197 14.9693C36.5126 14.6764 36.9874 14.6764 37.2803 14.9693L41.7803 19.4693C42.0732 19.7622 42.0732 20.2371 41.7803 20.53L37.2803 25.03C36.9874 25.3229 36.5126 25.3229 36.2197 25.03C35.9268 24.7371 35.9268 24.2622 36.2197 23.9693L39.4393 20.7496H30.75C30.3358 20.7496 30 20.4138 30 19.9996C30 19.5854 30.3358 19.2496 30.75 19.2496H39.4393L36.2197 16.03C35.9268 15.7371 35.9268 15.2622 36.2197 14.9693Z" fill="#2B2E38"/>
</svg>
