<svg width="237" height="52" viewBox="0 0 237 52" fill="none" xmlns="http://www.w3.org/2000/svg">
<rect width="52" height="52" rx="26" fill="url(#paint0_linear_531_8533)"/>
<path d="M12.9333 38.7999V36.9341H16.3369V15.2151H12.9333V13.3492H21.4422L29.2113 13.2C34.9085 13.2 37.7202 15.3271 37.7202 18.9842C37.7202 22.5667 35.0195 24.9551 30.3951 25.5521V25.9253C36.4253 26.2612 39.2 27.9405 39.2 32.0828C39.2 35.7026 35.9074 38.7999 30.1731 38.7999H12.9333ZM27.2505 25.1416C30.95 25.179 31.7639 22.1935 31.7639 20.1411C31.7639 17.5288 30.2841 15.0285 26.5846 15.0285H22.2931V25.1043L27.2505 25.1416ZM22.2931 36.8967H27.6205C30.6171 36.8967 32.9478 35.2548 32.9478 32.1947C32.9478 28.9854 31.172 27.0075 27.1025 27.0075H22.2931V36.8967Z" fill="white"/>
<path d="M74.905 24.914C75.5737 25.0387 76.1233 25.373 76.554 25.917C76.9847 26.461 77.2 27.0843 77.2 27.787C77.2 28.4217 77.0413 28.9827 76.724 29.47C76.418 29.946 75.9703 30.32 75.381 30.592C74.7917 30.864 74.0947 31 73.29 31H68.173V19.134H73.069C73.8737 19.134 74.565 19.2643 75.143 19.525C75.7323 19.7857 76.1743 20.1483 76.469 20.613C76.775 21.0777 76.928 21.6047 76.928 22.194C76.928 22.8853 76.741 23.4633 76.367 23.928C76.0043 24.3927 75.517 24.7213 74.905 24.914ZM70.553 24.03H72.729C73.2957 24.03 73.732 23.9053 74.038 23.656C74.344 23.3953 74.497 23.027 74.497 22.551C74.497 22.075 74.344 21.7067 74.038 21.446C73.732 21.1853 73.2957 21.055 72.729 21.055H70.553V24.03ZM72.95 29.062C73.528 29.062 73.9757 28.926 74.293 28.654C74.6217 28.382 74.786 27.9967 74.786 27.498C74.786 26.988 74.616 26.5913 74.276 26.308C73.936 26.0133 73.477 25.866 72.899 25.866H70.553V29.062H72.95ZM78.4848 26.257C78.4848 25.305 78.6718 24.4607 79.0458 23.724C79.4312 22.9873 79.9468 22.4207 80.5928 22.024C81.2502 21.6273 81.9812 21.429 82.7858 21.429C83.4885 21.429 84.1005 21.5707 84.6218 21.854C85.1545 22.1373 85.5795 22.4943 85.8968 22.925V21.582H88.2938V31H85.8968V29.623C85.5908 30.065 85.1658 30.4333 84.6218 30.728C84.0892 31.0113 83.4715 31.153 82.7688 31.153C81.9755 31.153 81.2502 30.949 80.5928 30.541C79.9468 30.133 79.4312 29.5607 79.0458 28.824C78.6718 28.076 78.4848 27.2203 78.4848 26.257ZM85.8968 26.291C85.8968 25.713 85.7835 25.22 85.5568 24.812C85.3302 24.3927 85.0242 24.0753 84.6388 23.86C84.2535 23.6333 83.8398 23.52 83.3978 23.52C82.9558 23.52 82.5478 23.6277 82.1738 23.843C81.7998 24.0583 81.4938 24.3757 81.2558 24.795C81.0292 25.203 80.9158 25.6903 80.9158 26.257C80.9158 26.8237 81.0292 27.3223 81.2558 27.753C81.4938 28.1723 81.7998 28.4953 82.1738 28.722C82.5592 28.9487 82.9672 29.062 83.3978 29.062C83.8398 29.062 84.2535 28.9543 84.6388 28.739C85.0242 28.5123 85.3302 28.195 85.5568 27.787C85.7835 27.3677 85.8968 26.869 85.8968 26.291ZM95.8373 21.446C96.9593 21.446 97.866 21.803 98.5573 22.517C99.2486 23.2197 99.5943 24.2057 99.5943 25.475V31H97.2143V25.798C97.2143 25.05 97.0273 24.4777 96.6533 24.081C96.2793 23.673 95.7693 23.469 95.1233 23.469C94.466 23.469 93.9446 23.673 93.5593 24.081C93.1853 24.4777 92.9983 25.05 92.9983 25.798V31H90.6183V21.582H92.9983V22.755C93.3156 22.347 93.718 22.0297 94.2053 21.803C94.704 21.565 95.248 21.446 95.8373 21.446ZM107.434 31L104.238 26.988V31H101.858V18.42H104.238V25.577L107.4 21.582H110.494L106.346 26.308L110.528 31H107.434ZM124.591 26.087C124.591 26.427 124.568 26.733 124.523 27.005H117.638C117.695 27.685 117.933 28.2177 118.352 28.603C118.771 28.9883 119.287 29.181 119.899 29.181C120.783 29.181 121.412 28.8013 121.786 28.042H124.353C124.081 28.9487 123.56 29.6967 122.789 30.286C122.018 30.864 121.072 31.153 119.95 31.153C119.043 31.153 118.227 30.9547 117.502 30.558C116.788 30.15 116.227 29.5777 115.819 28.841C115.422 28.1043 115.224 27.2543 115.224 26.291C115.224 25.3163 115.422 24.4607 115.819 23.724C116.216 22.9873 116.771 22.4207 117.485 22.024C118.199 21.6273 119.021 21.429 119.95 21.429C120.845 21.429 121.644 21.6217 122.347 22.007C123.061 22.3923 123.611 22.942 123.996 23.656C124.393 24.3587 124.591 25.169 124.591 26.087ZM122.126 25.407C122.115 24.795 121.894 24.3077 121.463 23.945C121.032 23.571 120.505 23.384 119.882 23.384C119.293 23.384 118.794 23.5653 118.386 23.928C117.989 24.2793 117.746 24.7723 117.655 25.407H122.126ZM131.547 21.446C132.669 21.446 133.576 21.803 134.267 22.517C134.959 23.2197 135.304 24.2057 135.304 25.475V31H132.924V25.798C132.924 25.05 132.737 24.4777 132.363 24.081C131.989 23.673 131.479 23.469 130.833 23.469C130.176 23.469 129.655 23.673 129.269 24.081C128.895 24.4777 128.708 25.05 128.708 25.798V31H126.328V21.582H128.708V22.755C129.026 22.347 129.428 22.0297 129.915 21.803C130.414 21.565 130.958 21.446 131.547 21.446ZM140.339 23.537V28.093C140.339 28.4103 140.412 28.6427 140.56 28.79C140.718 28.926 140.979 28.994 141.342 28.994H142.447V31H140.951C138.945 31 137.942 30.0253 137.942 28.076V23.537H136.82V21.582H137.942V19.253H140.339V21.582H142.447V23.537H140.339ZM145.365 20.46C144.946 20.46 144.595 20.3297 144.311 20.069C144.039 19.797 143.903 19.4627 143.903 19.066C143.903 18.6693 144.039 18.3407 144.311 18.08C144.595 17.808 144.946 17.672 145.365 17.672C145.785 17.672 146.13 17.808 146.402 18.08C146.686 18.3407 146.827 18.6693 146.827 19.066C146.827 19.4627 146.686 19.797 146.402 20.069C146.13 20.3297 145.785 20.46 145.365 20.46ZM146.538 21.582V31H144.158V21.582H146.538ZM151.661 23.537V28.093C151.661 28.4103 151.734 28.6427 151.882 28.79C152.04 28.926 152.301 28.994 152.664 28.994H153.769V31H152.273C150.267 31 149.264 30.0253 149.264 28.076V23.537H148.142V21.582H149.264V19.253H151.661V21.582H153.769V23.537H151.661ZM164.491 21.582L158.66 35.454H156.127L158.167 30.762L154.393 21.582H157.062L159.493 28.161L161.958 21.582H164.491Z" fill="#2B2E38"/>
<defs>
<linearGradient id="paint0_linear_531_8533" x1="2.18065" y1="52" x2="65.8671" y2="10.9991" gradientUnits="userSpaceOnUse">
<stop stop-color="#0871B6"/>
<stop offset="1" stop-color="#AE97C3"/>
</linearGradient>
</defs>
</svg>
