<svg width="32" height="32" viewBox="0 0 32 32" fill="none" xmlns="http://www.w3.org/2000/svg">
<path fill-rule="evenodd" clip-rule="evenodd" d="M16 0C7.16347 0 0 7.16347 0 16C0 24.8365 7.16347 32 16 32C24.8365 32 32 24.8365 32 16C32 7.16347 24.8365 0 16 0ZM16.0374 9.99393C17.1627 9.99393 18.0749 9.08173 18.0749 7.95648C18.0749 6.83122 17.1627 5.91903 16.0374 5.91903C14.9122 5.91903 14 6.83122 14 7.95648C14 9.08173 14.9122 9.99393 16.0374 9.99393ZM16.0375 12.5857H16.0382C16.7952 12.5857 17.409 13.1994 17.409 13.9565V24.6292C17.409 25.3863 16.7952 26 16.0382 26H16.0375C15.2804 26 14.6667 25.3863 14.6667 24.6292V13.9565C14.6667 13.1994 15.2804 12.5857 16.0375 12.5857Z" fill="#215C76"/>
</svg>
